# xmcd
#
# Track frame offsets:
#	150
#	14441
#	26526
#	41712
#	56771
#	70938
#	81883
#	93080
#	109785
#	124338
#	139087
#
# Disc length: 2072 seconds
#
# Revision: 0
# Processed by: cddbd v1.5.2PL0 Copyright (c) Steve Scherf et al.
# Submitted via: audiograbber 1.83.01
#
DISCID=9308160b
DTITLE=Marty Stuart - Saturday Night
DYEAR=2014
DGENRE=Country
TTITLE0=Jailhouse
TTITLE1=Geraldine
TTITLE2=M Lonesome
TTITLE3=When It Comes To Loving You
TTITLE4=Rough Around The Edges
TTITLE5=Sad House Big Party
TTITLE6=Talking To The Wall
TTITLE7=Little Ups And Downs
TTITLE8=Look At That Girl 
TTITLE9=Old Old House
TTITLE10=Streamline
EXTD=
EXTT0=
EXTT1=
EXTT2=
EXTT3=
EXTT4=
EXTT5=
EXTT6=
EXTT7=
EXTT8=
EXTT9=
EXTT10=
PLAYORDER=
